<?xml version="1.0"?>
<svg xmlns="http://www.w3.org/2000/svg" xmlns:xlink="http://www.w3.org/1999/xlink" xmlns:svgjs="http://svgjs.com/svgjs" version="1.1" width="512" height="512" x="0" y="0" viewBox="0 0 512 512" style="enable-background:new 0 0 512 512" xml:space="preserve" class=""><g>
<g xmlns="http://www.w3.org/2000/svg">
	<path d="M165,452h181c8.284,0,15-6.716,15-15v-60c0-8.284-6.716-15-15-15H165c-8.284,0-15,6.716-15,15v60   C150,445.284,156.716,452,165,452z M180,392h151v30H180V392z" fill="#ffffff" data-original="#000000" style="" class=""/>
	<path d="M510.416,250.292l-60-120C447.876,125.21,442.682,122,437,122h-46V15c0-8.284-6.716-15-15-15H135c-8.284,0-15,6.716-15,15   v107H75c-5.682,0-10.876,3.21-13.416,8.292l-60,120C0.62,252.219,0,254.717,0,257v60c0,8.284,6.716,15,15,15h15v165   c0,8.284,6.716,15,15,15h422c8.284,0,15-6.716,15-15V332h15c8.284,0,15-6.716,15-15v-60   C512,254.877,511.473,252.406,510.416,250.292z M150,30h211v152H150V30z M84.271,152H120v30h-15c-8.284,0-15,6.716-15,15   s6.716,15,15,15h301c8.284,0,15-6.716,15-15s-6.716-15-15-15h-15v-30h36.729l45,90H39.27L84.271,152z M452,482H60V332h392V482z    M482,302H30v-30h452V302z" fill="#ffffff" data-original="#000000" style="" class=""/>
	<path d="M230.394,147.606C233.322,150.536,237.161,152,241,152s7.678-1.464,10.606-4.394l69.687-69.687   c5.858-5.858,5.858-15.355,0-21.213c-5.857-5.858-15.355-5.858-21.213,0L241,115.787l-34.394-34.393   c-5.857-5.858-15.355-5.858-21.213,0c-5.858,5.858-5.858,15.355,0,21.213L230.394,147.606z" fill="#ffffff" data-original="#000000" style="" class=""/>
</g>















</g></svg>
